<?xml version="1.0" standalone="no"?>
<!DOCTYPE svg PUBLIC "-//W3C//DTD SVG 20010904//EN"
 "http://www.w3.org/TR/2001/REC-SVG-20010904/DTD/svg10.dtd">
<svg version="1.0" xmlns="http://www.w3.org/2000/svg"
 width="1920.000000pt" height="1920.000000pt" viewBox="0 0 1920.000000 1920.000000"
 preserveAspectRatio="xMidYMid meet">

<g transform="translate(0.000000,1920.000000) scale(0.100000,-0.100000)"
fill="#000000" stroke="none">
<path d="M6680 16517 c-200 -84 -398 -329 -490 -605 -56 -170 -64 -362 -21
-527 44 -166 164 -368 301 -505 33 -33 60 -62 60 -65 0 -2 -25 -42 -55 -89
-230 -353 -374 -789 -406 -1233 -11 -154 -11 -163 19 -376 17 -120 34 -222 37
-227 4 -6 65 -10 141 -10 l134 0 0 -880 c0 -790 -2 -880 -16 -888 -14 -8 -1
-112 115 -948 140 -1007 143 -1022 238 -1279 57 -153 203 -450 287 -583 431
-681 1115 -1178 1882 -1367 225 -56 379 -76 634 -82 576 -14 1082 117 1576
408 637 375 1126 970 1372 1669 79 224 87 271 216 1210 69 498 127 919 130
937 3 21 0 33 -10 37 -12 5 -14 133 -14 885 l0 880 138 3 137 3 22 150 c55
366 38 637 -63 997 l-35 126 20 122 c40 232 25 479 -40 673 -151 455 -591 879
-1184 1142 -666 295 -1618 387 -2635 256 -157 -21 -220 -31 -551 -95 -423 -81
-720 -112 -994 -103 -366 12 -555 85 -674 261 -28 41 -65 84 -82 97 -47 33
-120 36 -189 6z m572 -2032 c293 -76 638 -124 1308 -180 697 -58 990 -97 1307
-175 501 -124 854 -297 1352 -664 325 -240 450 -312 594 -343 84 -18 219 -13
312 12 82 22 227 93 303 149 34 25 64 46 67 46 3 0 5 -587 5 -1304 0 -1400 -1
-1420 -51 -1626 -53 -211 -162 -462 -275 -630 -281 -419 -690 -708 -1174 -829
-222 -56 -222 -56 -1410 -56 -1210 0 -1162 -2 -1419 65 -733 192 -1294 802
-1435 1557 -34 180 -38 374 -34 1693 4 1153 6 1306 21 1400 43 264 127 505
254 719 47 79 131 201 138 201 3 0 65 -16 137 -35z"/>
<path d="M7295 6550 c-11 -5 -130 -50 -265 -99 -1324 -483 -2555 -1035 -3037
-1359 -358 -242 -657 -571 -898 -991 -123 -215 -482 -950 -501 -1028 -6 -21
17 -47 172 -204 280 -282 571 -545 856 -772 1389 -1108 3047 -1804 4808 -2021
432 -53 573 -61 1175 -61 599 0 719 6 1165 60 1328 160 2597 596 3763 1293
678 405 1283 877 1860 1454 198 197 227 231 221 250 -26 84 -343 742 -447 930
-297 535 -606 875 -1047 1150 -467 291 -1448 733 -2595 1170 -272 103 -642
238 -654 238 -12 0 -115 -113 -209 -229 -170 -211 -353 -483 -507 -755 -68
-121 -235 -448 -255 -502 l-11 -29 -42 45 c-23 25 -247 271 -497 548 l-455
502 -5 -132 -5 -133 -55 -12 c-97 -22 -314 -44 -411 -41 l-94 3 -5 159 -5 160
-276 -305 c-151 -167 -369 -407 -484 -534 -114 -126 -213 -236 -220 -243 -10
-11 -31 24 -113 190 -235 475 -510 896 -804 1230 -68 77 -84 85 -123 68z"/>
</g>
</svg>
